<svg width="36" height="36" viewBox="0 0 36 36" fill="none" xmlns="http://www.w3.org/2000/svg">
<path d="M12.6 0C5.66253 0 0 5.66253 0 12.6C0 19.5375 5.66253 25.2 12.6 25.2C15.7464 25.2 18.621 24.0264 20.8336 22.1062L21.6 22.8727V25.2L32.4 36L36 32.4L25.2 21.6H22.8727L22.1062 20.8336C24.0264 18.621 25.2 15.7464 25.2 12.6C25.2 5.66253 19.5375 0 12.6 0ZM12.6 3.6C17.5919 3.6 21.6 7.60812 21.6 12.6C21.6 17.5919 17.5919 21.6 12.6 21.6C7.60812 21.6 3.6 17.5919 3.6 12.6C3.6 7.60812 7.60812 3.6 12.6 3.6Z" fill="#df8420"/>
</svg>
