<svg width="36" height="36" viewBox="0 0 36 36" fill="none" xmlns="http://www.w3.org/2000/svg">
<path d="M29.905 19.6303L29.8296 20.196L30.2783 20.5487L33.9745 23.4542L30.4562 29.538L26.0752 27.7783L25.543 27.5645L25.0897 27.916C24.2375 28.5769 23.3037 29.1294 22.2882 29.5425L21.7556 29.7591L21.6749 30.3284L21.0128 35H13.986L13.3239 30.3284L13.2432 29.7591L12.7105 29.5425C11.7001 29.1314 10.7822 28.5796 9.90133 27.9101L9.44979 27.5669L8.92352 27.7783L4.54255 29.538L1.02444 23.4546L4.75421 20.5516L5.22433 20.1857L5.12639 19.5981C5.04411 19.1044 5.00875 18.5431 5.00875 18C5.00875 17.4968 5.07442 16.9387 5.16389 16.4019L5.26183 15.8143L4.79171 15.4484L1.06176 12.5452L4.56144 6.46203L8.94227 8.22169L9.46664 8.43231L9.9176 8.09179C10.784 7.4376 11.7212 6.86764 12.7293 6.45754L13.2619 6.24089L13.3426 5.67158L14.0047 1H21.0315L21.6936 5.67158L21.7743 6.24089L22.307 6.45754C23.3174 6.86859 24.2353 7.42044 25.1162 8.08991L25.5677 8.43308L26.094 8.22169L30.475 6.46197L33.9931 12.5454L30.2633 15.4484L29.7932 15.8143L29.8911 16.4019C29.9735 16.8962 30.0088 17.439 30.0088 18C30.0088 18.5778 29.9738 19.1147 29.905 19.6303ZM9.75875 18C9.75875 22.2648 13.244 25.75 17.5087 25.75C21.7735 25.75 25.2587 22.2648 25.2587 18C25.2587 13.7352 21.7735 10.25 17.5087 10.25C13.244 10.25 9.75875 13.7352 9.75875 18Z" fill="#EDEDED" stroke="#1A1726" stroke-width="2"/>
</svg>
