<svg width="33" height="32" viewBox="0 0 33 32" fill="none" xmlns="http://www.w3.org/2000/svg">
<path d="M16.5 0L11.1667 5.33333L16.5 10.6667V6.66667C21.6453 6.66667 25.8333 10.8533 25.8333 16C25.8333 17.1733 25.6057 18.2935 25.2083 19.3281L27.2292 21.3464C28.0358 19.7344 28.5 17.9227 28.5 16C28.5 9.384 23.1173 4 16.5 4V0ZM5.77083 10.6536C4.96417 12.2656 4.5 14.0773 4.5 16C4.5 22.616 9.88267 28 16.5 28V32L21.8333 26.6667L16.5 21.3333V25.3333C11.3547 25.3333 7.16667 21.1467 7.16667 16C7.16667 14.8267 7.39433 13.7065 7.79167 12.6719L5.77083 10.6536Z" fill="black"/>
</svg>
