<svg width="36" height="36" viewBox="0 0 36 36" fill="none" xmlns="http://www.w3.org/2000/svg">
<path d="M26.5679 11.9324C27.0776 11.4227 27.0776 10.5963 26.5679 10.0866V10.0866C26.0582 9.5769 25.2318 9.5769 24.7221 10.0866L20.5385 14.2702C19.3172 15.4915 17.3372 15.4915 16.1159 14.2702L11.9323 10.0866C11.4226 9.5769 10.5962 9.5769 10.0865 10.0866V10.0866C9.57677 10.5963 9.57677 11.4227 10.0865 11.9324L14.2701 16.116C15.4914 17.3373 15.4914 19.3174 14.2701 20.5386L10.0865 24.7222C9.57677 25.232 9.57677 26.0584 10.0865 26.5681V26.5681C10.5962 27.0778 11.4226 27.0778 11.9323 26.5681L16.1159 22.3845C17.3372 21.1632 19.3172 21.1632 20.5385 22.3845L24.7221 26.5681C25.2318 27.0778 26.0582 27.0778 26.5679 26.5681V26.5681C27.0776 26.0584 27.0776 25.2319 26.5679 24.7222L22.3843 20.5386C21.1631 19.3174 21.1631 17.3373 22.3843 16.116L26.5679 11.9324Z" fill="#1A1726"/>
</svg>
