<svg width="36" height="36" viewBox="0 0 36 36" fill="none" xmlns="http://www.w3.org/2000/svg">
<circle cx="18" cy="18" r="18" fill="#BA3B46"/>
<path d="M26.5679 11.9324C27.0776 11.4227 27.0776 10.5963 26.5679 10.0865C26.0582 9.57684 25.2318 9.57684 24.7221 10.0865L20.5385 14.2701C19.3172 15.4914 17.3372 15.4914 16.1159 14.2701L11.9323 10.0865C11.4226 9.57684 10.5962 9.57684 10.0865 10.0865C9.57677 10.5963 9.57677 11.4227 10.0865 11.9324L14.2701 16.116C15.4914 17.3372 15.4914 19.3173 14.2701 20.5386L10.0865 24.7222C9.57677 25.2319 9.57677 26.0583 10.0865 26.568C10.5962 27.0777 11.4226 27.0777 11.9323 26.568L16.1159 22.3844C17.3372 21.1631 19.3173 21.1631 20.5385 22.3844L24.7221 26.568C25.2318 27.0777 26.0582 27.0777 26.5679 26.568C27.0776 26.0583 27.0776 25.2319 26.5679 24.7222L22.3843 20.5386C21.1631 19.3173 21.1631 17.3372 22.3843 16.116L26.5679 11.9324Z" fill="white"/>
</svg>
